<svg xmlns="http://www.w3.org/2000/svg" width="14.362" height="14.321" viewBox="0 0 14.362 14.321">
  <path id="call" d="M14.564,9.939a2.268,2.268,0,0,1-.483-.086,6.8,6.8,0,0,1-.944-.281,1.441,1.441,0,0,0-1.787.721l-.159.324A8.778,8.778,0,0,1,9.274,9.175,8.778,8.778,0,0,1,7.833,7.258l.3-.2a1.441,1.441,0,0,0,.721-1.787,7.445,7.445,0,0,1-.281-.944c-.036-.159-.065-.324-.086-.49A2.162,2.162,0,0,0,6.326,2.04H4.164A2.162,2.162,0,0,0,2,4.5,13.693,13.693,0,0,0,13.908,16.36h.274a2.157,2.157,0,0,0,2.162-2.169V12.029A2.162,2.162,0,0,0,14.564,9.939Zm.36,4.324a.721.721,0,0,1-.245.541.764.764,0,0,1-.591.18A12.252,12.252,0,0,1,3.487,4.332a.786.786,0,0,1,.18-.591A.721.721,0,0,1,4.207,3.5H6.37a.721.721,0,0,1,.721.569q.043.3.108.584A8.014,8.014,0,0,0,7.53,5.766l-1.009.468a.721.721,0,0,0-.353.959,10.443,10.443,0,0,0,5.045,5.045.764.764,0,0,0,.959-.375l.447-1.009a9.867,9.867,0,0,0,1.139.332q.288.065.584.108a.721.721,0,0,1,.569.721Z" transform="translate(-1.982 -2.04)" fill="#262626"/>
</svg>
