<svg xmlns="http://www.w3.org/2000/svg" width="18" height="18" viewBox="0 0 18 18">
  <path id="instagram_4_" data-name="instagram (4)" d="M15.806,5.114h0a1.08,1.08,0,1,0,1.08,1.08A1.08,1.08,0,0,0,15.806,5.114Zm4.14,2.178a6.831,6.831,0,0,0-.414-2.187,4.446,4.446,0,0,0-1.044-1.593A4.23,4.23,0,0,0,16.9,2.477a6.57,6.57,0,0,0-2.187-.423C13.754,2,13.448,2,11,2s-2.754,0-3.708.054a6.57,6.57,0,0,0-2.187.423A4.3,4.3,0,0,0,3.512,3.512,4.23,4.23,0,0,0,2.477,5.1a6.57,6.57,0,0,0-.423,2.187C2,8.246,2,8.552,2,11s0,2.754.054,3.708A6.57,6.57,0,0,0,2.477,16.9a4.23,4.23,0,0,0,1.035,1.593,4.3,4.3,0,0,0,1.593,1.035,6.57,6.57,0,0,0,2.187.423C8.246,20,8.552,20,11,20s2.754,0,3.708-.054a6.57,6.57,0,0,0,2.187-.423,4.23,4.23,0,0,0,1.593-1.035A4.365,4.365,0,0,0,19.532,16.9a6.831,6.831,0,0,0,.414-2.187c0-.954.054-1.26.054-3.708S20,8.246,19.946,7.292ZM18.326,14.6a5.049,5.049,0,0,1-.306,1.674,2.754,2.754,0,0,1-.675,1.035,2.871,2.871,0,0,1-1.035.675,5.049,5.049,0,0,1-1.674.306c-.9.045-1.233.054-3.6.054s-2.7,0-3.6-.054a5.157,5.157,0,0,1-1.746-.27,2.943,2.943,0,0,1-.99-.675,2.7,2.7,0,0,1-.666-1.035,4.986,4.986,0,0,1-.36-1.71c0-.9-.054-1.233-.054-3.6s0-2.7.054-3.6a4.986,4.986,0,0,1,.315-1.71A2.7,2.7,0,0,1,4.7,4.7a2.826,2.826,0,0,1,.99-.72A5.157,5.157,0,0,1,7.4,3.674c.9,0,1.233-.054,3.6-.054s2.7,0,3.6.054a5.049,5.049,0,0,1,1.674.306,2.754,2.754,0,0,1,1.071.72,2.754,2.754,0,0,1,.675.99,5.049,5.049,0,0,1,.306,1.71c.045.9.054,1.233.054,3.6S18.371,13.7,18.326,14.6ZM11,6.383a4.608,4.608,0,1,0,3.273,1.346A4.617,4.617,0,0,0,11,6.383ZM11,14a3,3,0,1,1,3-3,3,3,0,0,1-3,3Z" transform="translate(-2 -2)" fill="#ececec"/>
</svg>
