<svg xmlns="http://www.w3.org/2000/svg" width="17.957" height="18" viewBox="0 0 17.957 18">
  <path id="linkedin_2_" data-name="linkedin (2)" d="M14.933,7.795a4.544,4.544,0,0,0-2.152.541A.838.838,0,0,0,12,7.795H8.643a.838.838,0,0,0-.839.839V18.7a.838.838,0,0,0,.839.839H12a.838.838,0,0,0,.839-.839V14.085a.839.839,0,0,1,1.677,0V18.7a.838.838,0,0,0,.839.839h3.355a.838.838,0,0,0,.839-.839v-6.29A4.618,4.618,0,0,0,14.933,7.795Zm2.935,10.064H16.191V14.085a2.516,2.516,0,1,0-5.032,0v3.774H9.482V9.472h1.677v.59a.839.839,0,0,0,1.494.524,2.921,2.921,0,0,1,5.215,1.821ZM6.127,7.795H2.772a.838.838,0,0,0-.839.839V18.7a.838.838,0,0,0,.839.839H6.127a.838.838,0,0,0,.839-.839V8.634a.838.838,0,0,0-.839-.839ZM5.288,17.859H3.611V9.472H5.288ZM4.462,1.541a2.711,2.711,0,1,0-.048,5.415h.024a2.712,2.712,0,1,0,.024-5.415ZM4.438,5.279H4.414a1.025,1.025,0,0,1-1.148-1.03c0-.626.469-1.03,1.2-1.03a1.034,1.034,0,0,1,1.171,1.03C5.633,4.874,5.164,5.279,4.438,5.279Z" transform="translate(-1.589 -1.536)" fill="#ececec"/>
</svg>
