<svg xmlns="http://www.w3.org/2000/svg" width="17.208" height="13.767" viewBox="0 0 17.208 13.767">
  <path id="message" d="M16.627,4H4.581A2.581,2.581,0,0,0,2,6.581v8.6a2.581,2.581,0,0,0,2.581,2.581H16.627a2.581,2.581,0,0,0,2.581-2.581v-8.6A2.581,2.581,0,0,0,16.627,4ZM4.581,5.721H16.627a.86.86,0,0,1,.86.86L10.6,10.78l-6.883-4.2A.86.86,0,0,1,4.581,5.721Zm12.906,9.465a.86.86,0,0,1-.86.86H4.581a.86.86,0,0,1-.86-.86V8.543l6.436,3.932a.86.86,0,0,0,.86,0l6.47-3.932Z" transform="translate(-2 -4)" fill="#262626"/>
</svg>
