<svg xmlns="http://www.w3.org/2000/svg" width="17.208" height="17.223" viewBox="0 0 17.208 17.223">
  <path id="profile_1_" data-name="profile (1)" d="M10.623,2A8.62,8.62,0,0,0,4.287,16.448h0a8.62,8.62,0,0,0,12.672,0h0A8.62,8.62,0,0,0,10.623,2Zm0,15.517a6.9,6.9,0,0,1-4.784-1.94,5.172,5.172,0,0,1,9.569,0A6.9,6.9,0,0,1,10.623,17.517ZM8.9,8.9a1.724,1.724,0,1,1,1.724,1.724A1.724,1.724,0,0,1,8.9,8.9Zm7.681,5.172a6.9,6.9,0,0,0-3.371-2.914,3.448,3.448,0,1,0-5.172,0,6.9,6.9,0,0,0-3.371,2.914,6.827,6.827,0,0,1-.94-3.448,6.9,6.9,0,1,1,13.793,0A6.827,6.827,0,0,1,16.58,14.069Z" transform="translate(-2.019 -2)" fill="#262626"/>
</svg>
