<svg xmlns="http://www.w3.org/2000/svg" xmlns:xlink="http://www.w3.org/1999/xlink" width="24.444" height="24.438" viewBox="0 0 24.444 24.438">
  <defs>
    <linearGradient id="linear-gradient" x1="1.122" y1="0.091" x2="0.104" y2="1.251" gradientUnits="objectBoundingBox">
      <stop offset="0" stop-color="#c69048"/>
      <stop offset="1" stop-color="#8b3434"/>
    </linearGradient>
  </defs>
  <path id="shop" d="M26.435,9.111a1.528,1.528,0,0,0,0-.232h0L23.992,2.77A1.222,1.222,0,0,0,22.77,2H5.665a1.222,1.222,0,0,0-1.136.77L2.086,8.879h0a1.527,1.527,0,0,0,0,.232A.709.709,0,0,0,2,9.331H2a4.887,4.887,0,0,0,2.444,4.154V25.214a1.222,1.222,0,0,0,1.222,1.222h17.1a1.222,1.222,0,0,0,1.222-1.222V13.534a4.887,4.887,0,0,0,2.444-4.2h0a.709.709,0,0,0,0-.22Zm-11,14.881H13V19.105h2.444Zm6.109,0H17.883V17.883a1.222,1.222,0,0,0-1.222-1.222H11.774a1.222,1.222,0,0,0-1.222,1.222v6.109H6.887V14.218a4.887,4.887,0,0,0,3.665-1.686,4.887,4.887,0,0,0,7.331,0,4.887,4.887,0,0,0,3.665,1.686Zm0-12.218A2.444,2.444,0,0,1,19.1,9.331a1.222,1.222,0,1,0-2.444,0,2.444,2.444,0,0,1-4.887,0,1.222,1.222,0,1,0-2.444,0,2.445,2.445,0,1,1-4.887.183L6.5,4.444H21.939l2.053,5.07A2.444,2.444,0,0,1,21.548,11.775Z" transform="translate(-2 -1.998)" fill="url(#linear-gradient)"/>
</svg>
