<svg xmlns="http://www.w3.org/2000/svg" width="21.16" height="18" viewBox="0 0 21.16 18">
  <path id="twitter_3_" data-name="twitter (3)" d="M22.144,3.9a.961.961,0,0,0-1.453-.826,7.192,7.192,0,0,1-1.8.762,4.954,4.954,0,0,0-3.244-1.194A5.031,5.031,0,0,0,10.624,7.51,10.607,10.607,0,0,1,4.073,3.737a.973.973,0,0,0-.824-.351.96.96,0,0,0-.755.481,5.072,5.072,0,0,0-.233,4.585l0,0a1,1,0,0,0-.476.854,2.925,2.925,0,0,0,.025.423,4.986,4.986,0,0,0,1.508,3.185.96.96,0,0,0-.064.74,5,5,0,0,0,2.271,2.809,7.177,7.177,0,0,1-3.452.431.961.961,0,0,0-.639,1.762,12.444,12.444,0,0,0,6.74,1.982,12.3,12.3,0,0,0,11.985-9,12.328,12.328,0,0,0,.515-3.506c0-.063,0-.128,0-.192A5.548,5.548,0,0,0,22.144,3.9ZM18.965,6.988a.957.957,0,0,0-.224.675c.009.159.008.318.008.469a10.407,10.407,0,0,1-.437,2.962,10.273,10.273,0,0,1-10.14,7.624,10.517,10.517,0,0,1-2.453-.289,9.115,9.115,0,0,0,2.829-1.5.962.962,0,0,0-.578-1.717,3.085,3.085,0,0,1-2.129-.9q.216-.041.428-.1a.962.962,0,0,0-.077-1.869A3.075,3.075,0,0,1,4.03,10.68a5.1,5.1,0,0,0,.524.044.982.982,0,0,0,.946-.669.961.961,0,0,0-.385-1.093,3.073,3.073,0,0,1-1.369-2.57c0-.064,0-.128.006-.191a12.513,12.513,0,0,0,7.893,3.346A.981.981,0,0,0,12.43,9.2a.962.962,0,0,0,.2-.835,3.035,3.035,0,0,1-.084-.7,3.106,3.106,0,0,1,3.1-3.1,3.062,3.062,0,0,1,2.254.981.955.955,0,0,0,.885.286,8.914,8.914,0,0,0,1.165-.31,6.424,6.424,0,0,1-.987,1.466Z" transform="translate(-0.991 -2.642)" fill="#ececec"/>
</svg>
