<svg xmlns="http://www.w3.org/2000/svg" width="17.208" height="13.316" viewBox="0 0 17.208 13.316">
  <path id="users" d="M9.851,10.33a3.854,3.854,0,0,0,1.332-2.914,3.916,3.916,0,1,0-7.833,0A3.854,3.854,0,0,0,4.681,10.33,6.266,6.266,0,0,0,1,16.032a.783.783,0,1,0,1.567,0,4.7,4.7,0,1,1,9.4,0,.783.783,0,1,0,1.567,0,6.266,6.266,0,0,0-3.681-5.7ZM7.266,9.766a2.35,2.35,0,1,1,2.35-2.35A2.35,2.35,0,0,1,7.266,9.766Zm7.629.251A3.916,3.916,0,0,0,11.966,3.5a.783.783,0,1,0,0,1.567,2.346,2.346,0,0,1,1.175,4.378.782.782,0,0,0-.039,1.332l.305.2.1.055a5.483,5.483,0,0,1,3.133,5,.783.783,0,0,0,1.567,0A7.049,7.049,0,0,0,14.9,10.017Z" transform="translate(-1 -3.5)" fill="#262626"/>
</svg>
